<?xml version="1.0" encoding="utf-8"?>
<svg version="1.1" xmlns="http://www.w3.org/2000/svg" xmlns:xlink="http://www.w3.org/1999/xlink" height="80" width="80">
  <defs>
    <ellipse id="ellipse-0" opacity="1" rx="40" ry="40" cx="40" cy="40"/>
    <path id="path-1" opacity="1" fill-rule="evenodd" d="M30.900651646706443,13.320723712151583 L33.30773974689904,14.770117538603488 L36.99556818918397,13.239202802144362 L37.674775874575424,10.508492084284853 L42.303680974170135,10.508492084284853 L42.982888659561596,13.239202802144362 L46.67071710184652,14.770117538603488 L49.07780520203912,13.320723712151583 L52.351646087712766,16.600022200883213 L50.90466442843828,19.011122998037944 L52.433031325786104,22.705099174585712 L55.15919743289564,23.38543912207244 L55.15919743289564,28.022060762424292 L52.433031325786104,28.70240070991102 L50.90466442843828,32.39637688645879 L52.351646087712766,34.80747768361352 L49.07780520203912,38.086776172345154 L46.67071710184652,36.63738234589324 L42.982888659561596,38.16829708235237 L42.303680974170135,40.899007800211876 L37.674775874575424,40.899007800211876 L36.99556818918397,38.16829708235237 L33.30773974689904,36.63738234589324 L30.900651646706443,38.086776172345154 L27.6268107610328,34.80747768361352 L29.07379242030729,32.39637688645879 L27.545425522959462,28.70240070991102 L24.819259415849928,28.022060762424292 L24.819259415849928,23.38543912207244 L27.545425522959462,22.705099174585712 L29.07379242030729,19.011122998037944 L27.6268107610328,16.600022200883213 L30.900651646706443,13.320723712151583Z"/>
    <path id="path-2" opacity="1" fill-rule="evenodd" d="M27.674086009619437,65.58150132764561 L20.901278307660455,69.49126814833016 L10.548597288037342,51.53005376729807 L17.321404989996328,47.62028694661353 L27.674086009619437,65.58150132764561Z"/>
    <path id="path-3" opacity="1" fill-rule="evenodd" d="M26.89542077593523,64.21638573610188 L46.311305528413584,64.21638573610188 C50.342986601558366,64.21638573610188 54.20399804309641,62.58608741964866 57.01908949121844,59.69521209036319 L68.44258481237412,47.96387360555941 C69.85976511241293,46.50860547823933 69.74103841216476,44.153130713795406 68.18490478653308,42.84807685153275 C66.79489279390995,41.6823278384295 64.74482258367729,41.77835467507036 63.469348345225,43.06890261069937 L53.10505796075908,53.55596826467236 C52.237587070236216,54.43375665154423 51.05570585556826,54.927677459235035 49.82259981458356,54.927677459235035 L40.61266328484903,54.927677459235035 L37.67070661267151,54.91856629870482 L46.7809462257662,54.91856629870482 C48.528574529217494,54.91856629870482 49.99195292028028,53.59193337202849 50.165614656227945,51.85002333908008 C50.33257407845193,50.17548794057882 49.25409998980656,48.6297076264125 47.62675428086072,48.21119366047837 L40.705418519417904,46.43128049742366 C36.56841537347233,45.36743262182943 32.20257608753231,45.628779068617284 28.221521419836083,47.17875531197516 L19.11140149091503,50.72563419943638 L26.89542077593523,64.21638573610188Z"/>
    <path id="path-4" opacity="1" fill-rule="evenodd" d="M26.6707763671875,29.7196044921875 L24.529983520507812,29.1854248046875 C23.996673583984375,29.0523681640625 23.622421264648438,28.5726318359375 23.622177124023438,28.0224609375 L23.622177124023438,23.3857421875 C23.622177124023438,22.835205078125 23.996429443359375,22.35546875 24.529739379882812,22.222412109375 L26.6705322265625,21.6881103515625 L27.736923217773438,19.11083984375 L26.600875854492188,17.2177734375 C26.317703247070312,16.74609375 26.39178466796875,16.1417236328125 26.7803955078125,15.75244140625 L30.054244995117188,12.47314453125 C30.442733764648438,12.083740234375 31.046066284179688,12.009765625 31.51715087890625,12.2933349609375 L33.406951904296875,13.4312744140625 L35.98004150390625,12.3631591796875 L36.51336669921875,10.21875 C36.646331787109375,9.6845703125 37.12518310546875,9.3096923828125 37.674774169921875,9.3096923828125 L42.303680419921875,9.3096923828125 C42.853271484375,9.3096923828125 43.332122802734375,9.6845703125 43.46533203125,10.2183837890625 L43.99864196777344,12.36279296875 L46.57173156738281,13.430908203125 L48.4615478515625,12.29296875 C48.93238830566406,12.009521484375 49.53582763671875,12.0836181640625 49.92445373535156,12.4727783203125 L53.19828796386719,15.7520751953125 C53.58689880371094,16.141357421875 53.66099548339844,16.74560546875 53.37782287597656,17.2174072265625 L52.24177551269531,19.1104736328125 L53.30816650390625,21.687744140625 L55.448944091796875,22.2220458984375 C55.982269287109375,22.355224609375 56.35652160644531,22.8348388671875 56.35652160644531,23.3853759765625 L56.35652160644531,28.0220947265625 C56.35652160644531,28.5726318359375 55.982269287109375,29.0523681640625 55.448944091796875,29.1854248046875 L53.30816650390625,29.7196044921875 L52.24177551269531,32.2969970703125 L53.37782287597656,34.18994140625 C53.66087341308594,34.6617431640625 53.58689880371094,35.26611328125 53.19828796386719,35.6552734375 L49.92445373535156,38.9345703125 C49.53572082519531,39.3238525390625 48.93251037597656,39.39794921875 48.4615478515625,39.114501953125 L46.57173156738281,37.9765625 L43.99864196777344,39.044677734375 L43.46533203125,41.1890869140625 C43.332366943359375,41.7232666015625 42.853515625,42.09814453125 42.303924560546875,42.09814453125 L37.675018310546875,42.09814453125 C37.12542724609375,42.09814453125 36.646453857421875,41.7232666015625 36.51359558105469,41.1890869140625 L35.98028564453125,39.044677734375 L33.407196044921875,37.9765625 L31.517379760742188,39.114501953125 C31.046310424804688,39.39794921875 30.443099975585938,39.32373046875 30.054489135742188,38.9345703125 L26.7806396484375,35.6552734375 C26.39202880859375,35.26611328125 26.317947387695312,34.6617431640625 26.601119995117188,34.18994140625 L27.737152099609375,32.2969970703125 L26.6707763671875,29.7196044921875 L26.6707763671875,29.7196044921875ZM27.834701538085938,23.868408203125 L26.016098022460938,24.3221435546875 L26.015975952148438,27.0853271484375 L27.834579467773438,27.5390625 C28.202728271484375,27.631103515625 28.505645751953125,27.892333984375 28.65093994140625,28.243408203125 L30.179306030273438,31.9373779296875 C30.324600219726562,32.2886962890625 30.2950439453125,32.6881103515625 30.0994873046875,33.013916015625 L29.13446044921875,34.6220703125 L31.085678100585938,36.5765380859375 L32.69111633300781,35.6099853515625 C33.01629638671875,35.4141845703125 33.41508483886719,35.3843994140625 33.76588439941406,35.5299072265625 L37.45372009277344,37.0609130859375 C37.80427551269531,37.2064208984375 38.0650634765625,37.5098876953125 38.1568603515625,37.878662109375 L38.6099853515625,39.7003173828125 L41.36834716796875,39.7003173828125 L41.82147216796875,37.878662109375 C41.91326904296875,37.5098876953125 42.17405700683594,37.2064208984375 42.52461242675781,37.0609130859375 L46.212432861328125,35.5299072265625 C46.5631103515625,35.38427734375 46.96189880371094,35.4141845703125 47.287200927734375,35.6099853515625 L48.89265441894531,36.5765380859375 L50.84385681152344,34.6220703125 L49.87884521484375,33.013916015625 C49.68339538574219,32.6881103515625 49.653717041015625,32.2886962890625 49.79901123046875,31.9373779296875 L51.32737731933594,28.243408203125 C51.472686767578125,27.892333984375 51.775604248046875,27.631103515625 52.14375305175781,27.5390625 L53.96235656738281,27.0853271484375 L53.96235656738281,24.322265625 L52.14375305175781,23.8685302734375 C51.775604248046875,23.776611328125 51.472686767578125,23.515380859375 51.32737731933594,23.1641845703125 L49.79901123046875,19.47021484375 C49.653717041015625,19.1190185546875 49.68328857421875,18.719482421875 49.87884521484375,18.3936767578125 L50.84385681152344,16.785400390625 L48.89265441894531,14.8310546875 L47.287200927734375,15.7977294921875 C46.96202087402344,15.9935302734375 46.563232421875,16.023193359375 46.212432861328125,15.877685546875 L42.52461242675781,14.3468017578125 C42.17405700683594,14.201171875 41.91326904296875,13.8978271484375 41.82147216796875,13.529052734375 L41.36834716796875,11.707275390625 L38.6099853515625,11.707275390625 L38.156982421875,13.5289306640625 C38.065185546875,13.897705078125 37.80438232421875,14.2010498046875 37.453826904296875,14.3466796875 L33.76600646972656,15.8775634765625 C33.41532897949219,16.023193359375 33.01654052734375,15.993408203125 32.69123840332031,15.797607421875 L31.085800170898438,14.8309326171875 L29.13458251953125,16.7852783203125 L30.099594116210938,18.3935546875 C30.2950439453125,18.7193603515625 30.324722290039062,19.118896484375 30.179428100585938,19.4700927734375 L28.65106201171875,23.1640625 C28.505767822265625,23.5152587890625 28.202850341796875,23.7764892578125 27.834701538085938,23.868408203125 L27.834701538085938,23.868408203125Z"/>
    <path id="path-5" opacity="1" fill-rule="evenodd" d="M70.6240682452606,45.289148571483295 C70.55860100228102,43.989129824250504 69.949528242641,42.76427815139201 68.95327718128443,41.92880870750919 C67.10068585755329,40.37559560448926 64.31838787300786,40.505669409427256 62.61887260735876,42.22552084319724 L52.254582222892864,52.71270638086142 C51.876978655067305,53.094775704674674 51.412364693007454,53.3804585407735 50.908135269473675,53.549974080112044 C51.14451151240727,53.067322339392824 51.299981253962066,52.53479898313977 51.35647218391885,51.9690678444279 C51.58375242965601,49.68876015435828 50.140361295590644,47.61992729554268 47.92428913652311,47.050000227639266 L41.00295337508031,45.27008706458456 C36.59701989097181,44.136826531793005 32.02735845732754,44.410640882464314 27.78778597457484,46.06143931011053 L19.634541013883698,49.23583956905346 L18.357869933695035,47.02074860698962 C18.027541614456197,46.44770456311534 17.296031945185256,46.251095309568505 16.72382191102551,46.581494762480126 L9.951014209066535,50.49138146685584 C9.675860293874473,50.65022735767873 9.474910566337511,50.91217322292252 9.392687539048712,51.21931523974384 C9.310344827586277,51.52657714025635 9.353311445922055,51.853979500888286 9.5121323443387,52.12947222323622 L12.793752701298763,57.82286860140226 C13.12420070471124,58.39615241265892 13.856189110676729,58.59276166620576 14.42863851318375,58.261642911147014 C15.001087915690768,57.930524156088275 15.19725027628224,57.19743538447923 14.866682588696126,56.62403168953138 L12.183961836616916,51.96966726288383 L16.882882177789426,49.25705898239356 L26.0387214610399,65.14200771575642 L21.33980111986739,67.8544961125555 L19.020680887298184,63.83083978524323 C18.690232883885706,63.25755597398657 17.958124793746578,63.06082683674856 17.385795075413196,63.392065475498484 C16.813345672906177,63.72318423055722 16.617183312314708,64.45627300216627 16.947750999900823,65.02967669711413 L19.864813363961787,70.09068660426829 C20.086468453537993,70.47527348559646 20.488726961132826,70.6903448275861 20.902355465223202,70.6903448275861 C21.10510045536472,70.6903448275861 21.3105981814999,70.63855507299327 21.49886138663131,70.52994044877777 L28.271669088590276,66.62029351178441 C28.54682300378234,66.46144762096152 28.747772731319305,66.19962163940892 28.8299957586081,65.8923597388964 C28.87212458772842,65.7354319871325 28.88098121657757,65.57322935295639 28.85883964445468,65.41534253166299 L32.27127480320027,65.41534253166299 C32.93229049419886,65.41534253166299 33.46811653957288,64.8785033625272 33.46811653957288,64.21650561979209 C33.46811653957288,63.55450787705699 32.93229049419886,63.0176687079212 32.27127480320027,63.0176687079212 L27.57821898653599,63.0176687079212 L20.8455054827455,51.33680125710718 L28.65501749675043,48.29619119752904 C32.4255477030187,46.82845516632551 36.48954350304554,46.58509127321571 40.4077639795822,47.59247393026082 L47.329099741025004,49.37238709331554 C48.39153615040297,49.6457219092221 49.08366972654726,50.63763957010407 48.97463744436371,51.730858950039135 C48.86153590027649,52.86471890128663 47.91842461201488,53.719849270524136 46.78094622576636,53.719849270524136 L37.670586928498025,53.719849270524136 C37.010289342541256,53.719849270524136 36.47470266551451,54.25548960274805 36.47374519212542,54.91676804333603 C36.47278771873632,55.57804648392401 37.00657913315851,56.115365187824544 37.66687671911528,56.11752309426592 L40.61254360067555,56.12663425479614 L49.82248013041007,56.12663425479614 C51.364251655205265,56.12663425479614 52.87071634877747,55.49712499237273 53.95553369862561,54.39958979955493 L64.3198240830915,43.91240426189075 C65.15067161648138,43.071540051904506 66.51100193404248,43.008121579266536 67.416532391782,43.76746487924556 C67.91070834473027,44.18190279967933 68.20082278162698,44.765256840995704 68.23337687685631,45.41011121589106 C68.26593097208564,46.05496559078641 68.03589799035484,46.66469404416394 67.58576581330509,47.12684567369017 L56.16227049214943,58.858184158493955 C53.588342653906494,61.50149966547809 49.99781744478866,63.017548824230026 46.31130552841374,63.017548824230026 L40.70900904462718,63.017548824230026 C40.047993353628584,63.017548824230026 39.51216730825457,63.55438799336581 39.51216730825457,64.21638573610092 C39.51216730825457,64.87838347883601 40.047993353628584,65.4152226479718 40.70900904462718,65.4152226479718 L46.31130552841373,65.4152226479718 C50.638965562963456,65.4152226479718 54.85412247429416,63.635429368608285 57.87590849028772,60.532359905921666 L69.2994038114434,48.80102142111788 C70.20672953178746,47.86916548952063 70.68965517241381,46.589047435024895 70.6240682452606,45.289148571483295Z"/>
    <path id="path-6" opacity="1" fill-rule="evenodd" d="M36.3405367068671,63.017548824229834 C36.0257673302011,63.017548824229834 35.71698216221697,63.145704490108834 35.49436959925167,63.368808039408 C35.27175703628636,63.591791705015986 35.143694970494494,63.901091628278664 35.143694970494494,64.2163857361007 C35.143694970494494,64.53167984392275 35.27175703628636,64.84097976718543 35.49436959925167,65.06384354910223 C35.71698216221697,65.28682721471021 36.0257673302011,65.41522264797158 36.3405367068671,65.41522264797158 C36.65530608353309,65.41522264797158 36.96409125151722,65.2869470984014 37.18670381448252,65.06384354910223 C37.40931637744783,64.84097976718543 37.537378443239696,64.53167984392275 37.537378443239696,64.2163857361007 C37.537378443239696,63.901091628278664 37.40931637744783,63.591791705015986 37.18670381448252,63.368808039408 C36.96409125151722,63.14582437380002 36.65530608353309,63.017548824229834 36.3405367068671,63.017548824229834Z"/>
    <path id="path-7" opacity="1" fill-rule="evenodd" d="M16.749434324183554,59.97250306807619 C16.52682176121825,59.74963928615941 16.21923343497049,59.62124385289803 15.903267216568125,59.62124385289803 C15.588497839902129,59.62124385289803 15.279712671917997,59.749519402468216 15.057100108952692,59.97250306807619 C14.834487545987388,60.196685570596046 14.70642548019552,60.504786656946855 14.70642548019552,60.82008076476889 C14.70642548019552,61.13657370950279 14.834487545987388,61.4446747958536 15.057100108952692,61.66765846146158 C15.28090951365437,61.891721080290246 15.588497839902129,62.01999662986043 15.903267216568125,62.01999662986043 C16.21803659323412,62.01999662986043 16.52682176121825,61.891721080290246 16.749434324183554,61.66765846146158 C16.973243728885233,61.4446747958536 17.10010895294073,61.13645382581161 17.10010895294073,60.82008076476889 C17.10010895294073,60.504786656946855 16.973243728885233,60.196685570596046 16.749434324183554,59.97250306807619Z"/>
    <path id="path-8" opacity="1" fill-rule="evenodd" d="M33.6599702699132,29.600928975354286 C33.89371346102677,29.83506182424267 34.199985261364525,29.95206830684127 34.50625706170227,29.95206830684127 C34.812528862040026,29.95206830684127 35.11892034655141,29.83506182424267 35.35254385349135,29.600928975354286 C35.81991055154485,29.1327831612687 35.81991055154485,28.373679628672058 35.35254385349135,27.905413930895286 L33.15442432046941,25.7037499422444 L35.35254385349134,23.502085953593514 C35.819910551544844,23.03394013950793 35.819910551544844,22.274836606911286 35.35254385349134,21.806570909134514 C34.88517715543784,21.338425095048933 34.1273369679667,21.338425095048933 33.65985058573956,21.806570909134514 L30.615444260928548,24.856052361860495 C30.148077562875045,25.324198175946076 30.148077562875045,26.08330170854272 30.615444260928548,26.551567406319492 L33.6599702699132,29.600928975354286Z"/>
    <path id="path-9" opacity="1" fill-rule="evenodd" d="M44.629264152115454,29.600928975357295 C44.86300734322902,29.835061824245678 45.169279143566776,29.952068306844275 45.47555094390453,29.952068306844275 C45.781822744242284,29.952068306844275 46.08821422875367,29.835061824245678 46.321837735693606,29.600928975357295 L49.36624406050461,26.551447522631356 C49.833610758558116,26.083301708545783 49.833610758558116,25.32419817594915 49.36624406050461,24.855932478172384 L46.321837735693606,21.80645102544645 C45.8544710376401,21.338305211360876 45.096630850168964,21.338305211360876 44.62914446794182,21.80645102544645 C44.16177776988832,22.274596839532027 44.16177776988832,23.03370037212866 44.62914446794182,23.501966069905425 L46.82726400096375,25.70363005855628 L44.62914446794182,27.905294047207136 C44.16189745406195,28.373679628675085 44.16189745406195,29.13278316127172 44.629264152115454,29.600928975357295Z"/>
    <path id="path-10" opacity="1" fill-rule="evenodd" d="M37.23529558897934,30.40067307926325 C37.42571310923623,30.512764330523176 37.634442308059604,30.566112573101428 37.84053845506297,30.566112573101428 C38.25093548646514,30.566112573101428 38.65056094223995,30.35451785815622 38.87353255772617,29.97448655709315 L43.172109338082045,22.64779477019428 C43.5069856559191,22.077028516452557 43.31656813566222,21.342261373166895 42.746632100801584,21.006826805225426 C42.17681575011458,20.671392237283953 41.44327144989181,20.862247073653798 41.10839513205475,21.43301332739552 L36.80981835169888,28.75970511429439 C36.47494203386182,29.330471368036115 36.66535955411871,30.065238511321773 37.23529558897934,30.40067307926325Z"/>
  </defs>
  <g opacity="1">
    <g opacity="1">
      <use xlink:href="#ellipse-0" fill="rgb(242,247,251)" fill-opacity="1"/>
    </g>
    <g opacity="1">
      <g opacity="1">
        <use xlink:href="#path-1" fill="rgb(245,200,110)" fill-opacity="1"/>
      </g>
      <g opacity="1">
        <use xlink:href="#path-2" fill="rgb(165,220,105)" fill-opacity="1"/>
      </g>
      <g opacity="1">
        <use xlink:href="#path-3" fill="rgb(255,205,172)" fill-opacity="1"/>
      </g>
      <g opacity="1">
        <use xlink:href="#path-4" fill="rgb(0,0,0)" fill-opacity="1"/>
      </g>
      <g opacity="1">
        <use xlink:href="#path-5" fill="rgb(0,0,0)" fill-opacity="1"/>
      </g>
      <g opacity="1">
        <use xlink:href="#path-6" fill="rgb(0,0,0)" fill-opacity="1"/>
      </g>
      <g opacity="1">
        <use xlink:href="#path-7" fill="rgb(0,0,0)" fill-opacity="1"/>
      </g>
      <g opacity="1">
        <use xlink:href="#path-8" fill="rgb(0,0,0)" fill-opacity="1"/>
      </g>
      <g opacity="1">
        <use xlink:href="#path-9" fill="rgb(0,0,0)" fill-opacity="1"/>
      </g>
      <g opacity="1">
        <use xlink:href="#path-10" fill="rgb(0,0,0)" fill-opacity="1"/>
      </g>
    </g>
  </g>
</svg>