<?xml version="1.0" encoding="utf-8"?>
<svg version="1.1" xmlns="http://www.w3.org/2000/svg" xmlns:xlink="http://www.w3.org/1999/xlink" height="80" width="80">
  <defs>
    <ellipse id="ellipse-0" opacity="1" rx="40" ry="40" cx="40" cy="40"/>
    <path id="path-1" opacity="1" fill-rule="evenodd" d="M27.674086009619494,65.58150132764561 L20.90127830766051,69.49126814833016 L10.5485972880374,51.53005376729807 L17.321404989996385,47.62028694661353 L27.674086009619494,65.58150132764561Z"/>
    <path id="path-2" opacity="1" fill-rule="evenodd" d="M26.8954207759352,64.21638573610188 L46.311305528413556,64.21638573610188 C50.34298660155834,64.21638573610188 54.203998043096384,62.58608741964866 57.01908949121841,59.69521209036319 L68.4425848123741,47.96387360555941 C69.8597651124129,46.50860547823933 69.74103841216473,44.153130713795406 68.18490478653305,42.84807685153275 C66.79489279390992,41.6823278384295 64.74482258367726,41.77835467507036 63.46934834522497,43.06890261069937 L53.105057960759055,53.55596826467236 C52.23758707023619,54.43375665154423 51.055705855568235,54.927677459235035 49.82259981458353,54.927677459235035 L40.612663284849,54.927677459235035 L37.67070661267148,54.91856629870482 L46.78094622576617,54.91856629870482 C48.528574529217465,54.91856629870482 49.991952920280255,53.59193337202849 50.165614656227916,51.85002333908008 C50.3325740784519,50.17548794057882 49.254099989806534,48.6297076264125 47.626754280860695,48.21119366047837 L40.705418519417876,46.43128049742366 C36.5684153734723,45.36743262182943 32.20257608753228,45.628779068617284 28.221521419836055,47.17875531197516 L19.111401490915,50.72563419943638 L26.8954207759352,64.21638573610188Z"/>
    <path id="path-3" opacity="1" fill-rule="evenodd" d="M70.6240682452606,45.289148571483295 C70.55860100228102,43.989129824250504 69.949528242641,42.76427815139201 68.95327718128443,41.92880870750919 C67.10068585755329,40.37559560448926 64.31838787300786,40.505669409427256 62.61887260735876,42.22552084319724 L52.254582222892864,52.71270638086142 C51.876978655067305,53.094775704674674 51.412364693007454,53.3804585407735 50.908135269473675,53.549974080112044 C51.14451151240727,53.067322339392824 51.299981253962066,52.53479898313977 51.35647218391885,51.9690678444279 C51.58375242965601,49.68876015435828 50.140361295590644,47.61992729554268 47.92428913652311,47.050000227639266 L41.00295337508031,45.27008706458456 C36.59701989097181,44.136826531793005 32.02735845732754,44.410640882464314 27.78778597457484,46.06143931011053 L19.634541013883698,49.23583956905346 L18.357869933695035,47.02074860698962 C18.027541614456197,46.44770456311534 17.296031945185256,46.251095309568505 16.72382191102551,46.581494762480126 L9.951014209066535,50.49138146685584 C9.675860293874473,50.65022735767873 9.474910566337511,50.91217322292252 9.392687539048712,51.21931523974384 C9.310344827586277,51.52657714025635 9.353311445922055,51.853979500888286 9.5121323443387,52.12947222323622 L12.793752701298763,57.82286860140226 C13.12420070471124,58.39615241265892 13.856189110676729,58.59276166620576 14.42863851318375,58.261642911147014 C15.001087915690768,57.930524156088275 15.19725027628224,57.19743538447923 14.866682588696126,56.62403168953138 L12.183961836616916,51.96966726288383 L16.882882177789426,49.25705898239356 L26.0387214610399,65.14200771575642 L21.33980111986739,67.8544961125555 L19.020680887298184,63.83083978524323 C18.690232883885706,63.25755597398657 17.958124793746578,63.06082683674856 17.385795075413196,63.392065475498484 C16.813345672906177,63.72318423055722 16.617183312314708,64.45627300216627 16.947750999900823,65.02967669711413 L19.864813363961787,70.09068660426829 C20.086468453537993,70.47527348559646 20.488726961132826,70.6903448275861 20.902355465223202,70.6903448275861 C21.10510045536472,70.6903448275861 21.3105981814999,70.63855507299327 21.49886138663131,70.52994044877777 L28.271669088590276,66.62029351178441 C28.54682300378234,66.46144762096152 28.747772731319305,66.19962163940892 28.8299957586081,65.8923597388964 C28.87212458772842,65.7354319871325 28.88098121657757,65.57322935295639 28.85883964445468,65.41534253166299 L32.27127480320027,65.41534253166299 C32.93229049419886,65.41534253166299 33.46811653957288,64.8785033625272 33.46811653957288,64.21650561979209 C33.46811653957288,63.55450787705699 32.93229049419886,63.0176687079212 32.27127480320027,63.0176687079212 L27.57821898653599,63.0176687079212 L20.8455054827455,51.33680125710718 L28.65501749675043,48.29619119752904 C32.4255477030187,46.82845516632551 36.48954350304554,46.58509127321571 40.4077639795822,47.59247393026082 L47.329099741025004,49.37238709331554 C48.39153615040297,49.6457219092221 49.08366972654726,50.63763957010407 48.97463744436371,51.730858950039135 C48.86153590027649,52.86471890128663 47.91842461201488,53.719849270524136 46.78094622576636,53.719849270524136 L37.670586928498025,53.719849270524136 C37.010289342541256,53.719849270524136 36.47470266551451,54.25548960274805 36.47374519212542,54.91676804333603 C36.47278771873632,55.57804648392401 37.00657913315851,56.115365187824544 37.66687671911528,56.11752309426592 L40.61254360067555,56.12663425479614 L49.82248013041007,56.12663425479614 C51.364251655205265,56.12663425479614 52.87071634877747,55.49712499237273 53.95553369862561,54.39958979955493 L64.3198240830915,43.91240426189075 C65.15067161648138,43.071540051904506 66.51100193404248,43.008121579266536 67.416532391782,43.76746487924556 C67.91070834473027,44.18190279967933 68.20082278162698,44.765256840995704 68.23337687685631,45.41011121589106 C68.26593097208564,46.05496559078641 68.03589799035484,46.66469404416394 67.58576581330509,47.12684567369017 L56.16227049214943,58.858184158493955 C53.588342653906494,61.50149966547809 49.99781744478866,63.017548824230026 46.31130552841374,63.017548824230026 L40.70900904462718,63.017548824230026 C40.047993353628584,63.017548824230026 39.51216730825457,63.55438799336581 39.51216730825457,64.21638573610092 C39.51216730825457,64.87838347883601 40.047993353628584,65.4152226479718 40.70900904462718,65.4152226479718 L46.31130552841373,65.4152226479718 C50.638965562963456,65.4152226479718 54.85412247429416,63.635429368608285 57.87590849028772,60.532359905921666 L69.2994038114434,48.80102142111788 C70.20672953178746,47.86916548952063 70.68965517241381,46.589047435024895 70.6240682452606,45.289148571483295Z"/>
    <path id="path-4" opacity="1" fill-rule="evenodd" d="M36.3405367068671,63.017548824229834 C36.0257673302011,63.017548824229834 35.71698216221697,63.145704490108834 35.49436959925167,63.368808039408 C35.27175703628636,63.591791705015986 35.143694970494494,63.901091628278664 35.143694970494494,64.2163857361007 C35.143694970494494,64.53167984392275 35.27175703628636,64.84097976718543 35.49436959925167,65.06384354910223 C35.71698216221697,65.28682721471021 36.0257673302011,65.41522264797158 36.3405367068671,65.41522264797158 C36.65530608353309,65.41522264797158 36.96409125151722,65.2869470984014 37.18670381448252,65.06384354910223 C37.40931637744783,64.84097976718543 37.537378443239696,64.53167984392275 37.537378443239696,64.2163857361007 C37.537378443239696,63.901091628278664 37.40931637744783,63.591791705015986 37.18670381448252,63.368808039408 C36.96409125151722,63.14582437380002 36.65530608353309,63.017548824229834 36.3405367068671,63.017548824229834Z"/>
    <path id="path-5" opacity="1" fill-rule="evenodd" d="M16.749434324183582,59.97250306807619 C16.52682176121828,59.74963928615941 16.21923343497052,59.62124385289803 15.903267216568153,59.62124385289803 C15.588497839902157,59.62124385289803 15.279712671918025,59.749519402468216 15.05710010895272,59.97250306807619 C14.834487545987416,60.196685570596046 14.706425480195549,60.504786656946855 14.706425480195549,60.82008076476889 C14.706425480195549,61.13657370950279 14.834487545987416,61.4446747958536 15.05710010895272,61.66765846146158 C15.280909513654398,61.891721080290246 15.588497839902157,62.01999662986043 15.903267216568153,62.01999662986043 C16.21803659323415,62.01999662986043 16.52682176121828,61.891721080290246 16.749434324183582,61.66765846146158 C16.97324372888526,61.4446747958536 17.100108952940758,61.13645382581161 17.100108952940758,60.82008076476889 C17.100108952940758,60.504786656946855 16.97324372888526,60.196685570596046 16.749434324183582,59.97250306807619Z"/>
    <ellipse id="ellipse-6" opacity="1" rx="14.817396008886675" ry="14.817396008886718" cx="40.00041496438777" cy="26.000060273004365"/>
    <path id="path-7" opacity="1" fill-rule="evenodd" d="M41.07997817884044,31.329338247257347 L38.68678767937277,31.329338247257347 C38.00893060711602,31.329338247257347 37.4574516744146,30.77785931455593 37.4574516744146,30.100002242299176 C37.4574516744146,29.446950553713286 36.9279566599428,28.917455539241487 36.27490497135691,28.917455539241487 C35.62185328277102,28.917455539241487 35.09235826829922,29.446950553713286 35.09235826829922,30.100002242299176 C35.09235826829922,32.081964153706835 36.70482576796512,33.69443165337273 38.68678767937276,33.69443165337273 L38.81739801708994,33.69443165337273 L38.81739801708994,35.123621460418406 C38.81739801708994,35.776673149004296 39.34689303156174,36.30616816347609 39.99994472014763,36.30616816347609 C40.65299640873352,36.30616816347609 41.18249142320532,35.776673149004296 41.18249142320532,35.123621460418406 L41.18249142320532,33.691845310051605 C43.24557046604848,33.63717941712767 44.90741361093599,31.94312454178605 44.90741361093599,29.86687866021712 L44.90741361093599,28.610503611447108 C44.90741361093599,26.500047461403202 43.19043432888434,24.78306817935155 41.07997817884044,24.78306817935155 L38.92002882251488,24.78306817935155 C38.11355995056182,24.78306817935155 37.45756923547465,24.12695990320432 37.45756923547465,23.320726153371368 L37.45756923547465,22.064351104601357 C37.45756923547465,21.257999793708358 38.11367751162188,20.60200907862118 38.92002882251488,20.60200907862118 L41.31321932198255,20.60200907862118 C41.99095883317925,20.60200907862118 42.54243776588068,21.153488011322604 42.54243776588068,21.831227522519303 C42.54243776588068,22.484279211105193 43.071932780352476,23.01377422557699 43.724984468938366,23.01377422557699 C44.37803615752426,23.01377422557699 44.907531171996055,22.484279211105193 44.907531171996055,21.831227522519303 C44.907531171996055,19.849265611111647 43.29518123339022,18.2369156725058 41.31321932198256,18.2369156725058 L41.182608984265386,18.2369156725058 L41.182608984265386,16.807725865460135 C41.182608984265386,16.154674176874245 40.65311396979358,15.625179162402446 40.0000622812077,15.625179162402446 C39.34701059262181,15.625179162402446 38.81751557815,16.154674176874245 38.81751557815,16.807725865460135 L38.81751557815,18.239619576886984 C36.75431897424679,18.294285469810916 35.09247582935929,19.988340345152533 35.09247582935929,22.064468665661412 L35.09247582935929,23.320843714431422 C35.09247582935929,25.43129986447533 36.809455111410934,27.14827914652698 38.92002882251488,27.14827914652698 L41.07997817884045,27.14827914652698 C41.88632948973345,27.14827914652698 42.542320204820626,27.80438742267421 42.542320204820626,28.61062117250716 L42.542320204820626,29.866996221277176 C42.542320204820626,30.673347532170176 41.886329489733455,31.329338247257347 41.07997817884044,31.329338247257347Z"/>
    <path id="path-8" opacity="1" fill-rule="evenodd" d="M56,26 C56,34.8223876953125 48.82244873046875,42 40.00006103515625,42 C31.17742919921875,42 23.9998779296875,34.8223876953125 24,26 C24,17.1776123046875 31.17755126953125,10 40.00006103515625,10 C48.82244873046875,10 56,17.1776123046875 56,26 L56,26ZM53.63494873046875,26 C53.63494873046875,18.481689453125 47.518310546875,12.3651123046875 40.00006103515625,12.3651123046875 C32.481689453125,12.3651123046875 26.364990234375,18.481689453125 26.3651123046875,26 C26.3651123046875,33.518310546875 32.481689453125,39.6348876953125 40.00006103515625,39.6348876953125 C47.518310546875,39.6348876953125 53.63494873046875,33.518310546875 53.63494873046875,26 L53.63494873046875,26Z"/>
  </defs>
  <g opacity="1">
    <g opacity="1">
      <use xlink:href="#ellipse-0" fill="rgb(242,247,251)" fill-opacity="1"/>
    </g>
    <g opacity="1">
      <g opacity="1">
        <use xlink:href="#path-1" fill="rgb(165,220,105)" fill-opacity="1"/>
      </g>
      <g opacity="1">
        <use xlink:href="#path-2" fill="rgb(255,205,172)" fill-opacity="1"/>
      </g>
      <g opacity="1">
        <use xlink:href="#path-3" fill="rgb(0,0,0)" fill-opacity="1"/>
      </g>
      <g opacity="1">
        <use xlink:href="#path-4" fill="rgb(0,0,0)" fill-opacity="1"/>
      </g>
      <g opacity="1">
        <use xlink:href="#path-5" fill="rgb(0,0,0)" fill-opacity="1"/>
      </g>
      <g opacity="1">
        <g opacity="1">
          <use xlink:href="#ellipse-6" fill="rgb(245,200,110)" fill-opacity="1"/>
        </g>
        <g opacity="1">
          <use xlink:href="#path-7" fill="rgb(0,0,0)" fill-opacity="1"/>
        </g>
        <g opacity="1">
          <use xlink:href="#path-8" fill="rgb(0,0,0)" fill-opacity="1"/>
        </g>
      </g>
    </g>
  </g>
</svg>