<?xml version="1.0" encoding="utf-8"?>
<svg version="1.1" xmlns="http://www.w3.org/2000/svg" xmlns:xlink="http://www.w3.org/1999/xlink" height="767.5696650307275" width="1298.8105794506068">
  <defs>
    <path id="path-0" opacity="1" fill-rule="evenodd" d="M1247.0463010947844,147.54630109478467 C1247.0463010947844,147.54630109478467 1247.2858306345092,121.54630109478474 1101.0463010947844,121.54630109478474 C958.0463010947843,121.54630109478478 882.0463010947844,266.0463010947848 799.5463010947844,284.5463010947849 C717.0463010947846,303.0463010947849 726.5463010947843,47.04630109478467 595.0463010947846,47.04630109478467 C463.5463010947847,47.04630109478467 451.5463010947846,182.54630109478472 353.54630109478455,211.0463010947848 C255.54630109478472,239.5463010947849 47.04630109478449,67.04630109478467 47.04630109478449,67.04630109478467 L47.04630109478449,639.052715243351 C47.04630109478449,639.052715243351 201.0463010947845,777.5463010947848 423.38708402354865,693.3948823345609 C561.7625353408145,641.0226166775446 750.6515506303705,716.0100503498561 943.5463010947846,707.5463010947849 C1313.9898762644118,691.2921442250972 1247.0463010947844,639.052715243351 1247.0463010947844,639.052715243351 L1247.0463010947844,147.54630109478467Z"/>
    <mask id="mask-1" maskUnits="userSpaceOnUse" maskContentUnits="userSpaceOnUse">
      <rect opacity="1" x="0" y="0" width="1298.8105794506068" height="767.5696650307275" fill="white"/>
      <use xlink:href="#path-0" fill="black"/>
    </mask>
  </defs>
  <g opacity="0.09">
    <use xlink:href="#path-0" fill="rgb(111,166,206)" fill-opacity="1"/>
    <use xlink:href="#path-0" fill-opacity="0" stroke="rgb(2,117,216)" stroke-opacity="1" stroke-width="20" stroke-linecap="butt" stroke-linejoin="miter" mask="url(#mask-1)"/>
  </g>
</svg>