<?xml version="1.0" encoding="utf-8"?>
<svg version="1.1" xmlns="http://www.w3.org/2000/svg" xmlns:xlink="http://www.w3.org/1999/xlink" height="631.1932605088992" width="1294.0926047432517">
  <defs>
    <path id="path-0" opacity="1" fill-rule="evenodd" d="M1247.0463010947844,147.54630109478484 C1247.0463010947844,147.54630109478484 1247.2858306345092,121.54630109478487 1101.0463010947844,121.54630109478487 C958.0463010947843,121.54630109478494 882.0463010947844,266.046301094785 799.5463010947844,284.54630109478506 C717.0463010947846,303.0463010947851 726.5463010947843,47.04630109478478 595.0463010947846,47.04630109478478 C463.54630109478467,47.04630109478478 451.5463010947846,182.5463010947849 353.54630109478455,211.04630109478498 C255.54630109478472,239.5463010947851 47.04630109478449,67.0463010947848 47.04630109478449,67.0463010947848 L53.96542459497578,475.905122553941 C53.96542459497578,475.905122553941 183.0463010947845,555.7447271373635 430.30620752373994,555.7447271373633 C578.26099702819,555.744727137363 767.8916803786404,516.5000936552437 952.4654245949757,573.1794792742182 C1085.5463010947844,614.0463010947847 1247.0463010947844,527.5463010947849 1247.0463010947844,527.5463010947849 L1247.0463010947844,147.54630109478484Z"/>
    <mask id="mask-1" maskUnits="userSpaceOnUse" maskContentUnits="userSpaceOnUse">
      <rect opacity="1" x="0" y="0" width="1294.0926047432517" height="631.1932605088992" fill="white"/>
      <use xlink:href="#path-0" fill="black"/>
    </mask>
  </defs>
  <g opacity="0.09">
    <use xlink:href="#path-0" fill="rgb(111,166,206)" fill-opacity="1"/>
    <use xlink:href="#path-0" fill-opacity="0" stroke="rgb(2,117,216)" stroke-opacity="1" stroke-width="20" stroke-linecap="butt" stroke-linejoin="miter" mask="url(#mask-1)"/>
  </g>
</svg>